<svg width="82" height="82" viewBox="0 0 82 82" fill="none" xmlns="http://www.w3.org/2000/svg">
<g clip-path="url(#clip0)">
<path d="M69.8281 13.0721C56.5308 13.0721 42.7503 0.746288 42.6139 0.622808C41.698 -0.207603 40.3019 -0.207603 39.3861 0.622808C39.2489 0.747249 25.5046 13.0721 12.1719 13.0721C10.8451 13.0721 9.76953 14.1477 9.76953 15.4744V44.2446C9.76953 67.5511 27.1042 76.8642 40.1432 81.842C40.4191 81.9474 40.7095 82 41 82C41.2905 82 41.5809 81.9473 41.8568 81.842C60.1393 74.8624 72.2305 63.9752 72.2305 44.2446V15.4744C72.2305 14.1477 71.1549 13.0721 69.8281 13.0721Z" fill="url(#paint0_linear)"/>
<path d="M41 24.1836C31.7274 24.1836 24.1836 31.7274 24.1836 41C24.1836 50.2726 31.7274 57.8164 41 57.8164C50.2726 57.8164 57.8164 50.2726 57.8164 41C57.8164 31.7274 50.2726 24.1836 41 24.1836ZM47.5033 40.2963L40.2963 47.5033C39.8273 47.9724 39.2125 48.207 38.5977 48.207C37.9828 48.207 37.368 47.9726 36.899 47.5033L34.4967 45.101C33.5585 44.1628 33.5585 42.6418 34.4967 41.7036C35.4347 40.7654 36.9559 40.7654 37.8941 41.7036L38.5978 42.4071L44.1062 36.8989C45.0443 35.9607 46.5654 35.9607 47.5036 36.8989C48.4417 37.8371 48.4417 39.3581 47.5033 40.2963Z" fill="url(#paint1_linear)"/>
</g>
<defs>
<linearGradient id="paint0_linear" x1="41" y1="82" x2="41" y2="-3.91006e-05" gradientUnits="userSpaceOnUse">
<stop stop-color="#00B59C"/>
<stop offset="1" stop-color="#9CFFAC"/>
</linearGradient>
<linearGradient id="paint1_linear" x1="41" y1="57.8164" x2="41" y2="24.1836" gradientUnits="userSpaceOnUse">
<stop stop-color="#C3FFE8"/>
<stop offset="0.9973" stop-color="#F0FFF4"/>
</linearGradient>
<clipPath id="clip0">
<rect width="82" height="82" fill="white"/>
</clipPath>
</defs>
</svg>
